# xmcd
#
# Track frame offsets:
#	150
#	16857
#	28765
#	45942
#	63327
#	75260
#	91702
#	105080
#	122777
#	139595
#	160702
#	178665
#
# Disc length: 2606 seconds
#
# Revision: 1
# Processed by: cddbd v1.4PL0 Copyright (c) Steve Scherf et al.
# Submitted via: audiograbber 1.80
#
DISCID=7b0a2c0c
DTITLE=Miltinho Edilberto - Feito Brasileiro
DYEAR=1900
DGENRE=
TTITLE0=Balanço do Busão
TTITLE1=Inconsequente
TTITLE2=Rua do Amor
TTITLE3=Agua e Azeite
TTITLE4=Olhos de Carol
TTITLE5=Antes de Beijar
TTITLE6=Sol Do Si Mi Re La
TTITLE7=Princesa Fulô (nas dunas)
TTITLE8=Beijo Contido
TTITLE9=A Segunda Vista
TTITLE10=A Luz da Lua
TTITLE11=Feito Brasileiro
EXTD=
EXTT0=
EXTT1=
EXTT2=
EXTT3=
EXTT4=
EXTT5=
EXTT6=
EXTT7=
EXTT8=
EXTT9=
EXTT10=
EXTT11=
PLAYORDER=
